<svg xmlns="http://www.w3.org/2000/svg" xmlns:xlink="http://www.w3.org/1999/xlink" width="500" zoomAndPan="magnify" viewBox="0 0 375 374.999991" height="500" preserveAspectRatio="xMidYMid meet" version="1.0"><defs><g/><clipPath id="bad8ed11b1"><path d="M 94.230469 63.117188 L 303 63.117188 L 303 220.964844 L 94.230469 220.964844 Z M 94.230469 63.117188 " clip-rule="nonzero"/></clipPath></defs><g clip-path="url(#bad8ed11b1)"><path fill="#ffffff" d="M 104.351562 190.007812 L 104.351562 111.917969 L 114.777344 111.917969 L 114.777344 101.800781 L 104.210938 101.800781 C 98.722656 101.804688 94.230469 106.292969 94.230469 111.785156 L 94.230469 190.144531 C 94.230469 195.632812 98.722656 200.125 104.210938 200.125 L 171.167969 200.125 C 161.808594 196.144531 151.984375 193.292969 141.941406 191.65625 C 139.429688 191.246094 136.902344 190.910156 134.363281 190.648438 C 132.308594 190.441406 130.253906 190.277344 128.191406 190.171875 C 126.601562 190.085938 125.015625 190.03125 123.425781 190.007812 L 118.847656 190.007812 L 114.777344 190.035156 L 114.777344 190.007812 Z M 226.378906 170.625 C 214.410156 176.375 203.050781 183.332031 192.476562 191.390625 C 202.453125 179.390625 213.835938 168.648438 226.378906 159.402344 L 226.378906 79.316406 C 213.472656 83.042969 201.324219 89.136719 190.570312 97.324219 C 200.671875 86.84375 212.894531 78.6875 226.378906 73.367188 C 228.972656 72.34375 231.617188 71.425781 234.300781 70.617188 L 234.300781 167.03125 C 231.632812 168.167969 228.992188 169.367188 226.378906 170.625 Z M 264.90625 190.007812 L 264.90625 122.414062 C 265.171875 122.433594 265.441406 122.441406 265.707031 122.441406 L 275.019531 122.441406 L 275.019531 190.144531 C 275.019531 195.632812 270.53125 200.121094 265.042969 200.121094 L 198.085938 200.121094 C 207.445312 196.140625 217.269531 193.292969 227.3125 191.652344 C 229.828125 191.242188 232.355469 190.90625 234.890625 190.648438 C 236.945312 190.4375 239.003906 190.277344 241.066406 190.167969 C 242.652344 190.082031 244.242188 190.03125 245.828125 190.003906 L 250.40625 190.003906 L 254.476562 190.03125 L 254.476562 190.003906 L 264.90625 190.003906 Z M 240.757812 176.128906 L 240.757812 87.640625 L 248.683594 87.640625 L 248.683594 184.203125 C 246.035156 184.183594 243.394531 184.246094 240.757812 184.382812 C 238.601562 184.496094 236.449219 184.664062 234.300781 184.882812 C 231.648438 185.152344 229.007812 185.503906 226.378906 185.933594 C 214.382812 187.894531 202.675781 191.5 191.597656 196.675781 C 201.925781 188.472656 213.761719 182.472656 226.378906 178.976562 C 228.988281 178.253906 231.628906 177.636719 234.300781 177.128906 C 236.4375 176.726562 238.589844 176.394531 240.757812 176.128906 Z M 159.191406 211.265625 L 177.230469 211.265625 L 177.230469 208.59375 C 177.230469 207.242188 178.480469 206.140625 180.011719 206.140625 L 189.246094 206.140625 C 190.773438 206.140625 192.027344 207.242188 192.027344 208.59375 L 192.027344 211.265625 L 210.0625 211.265625 C 212.449219 211.265625 214.402344 212.988281 214.402344 215.097656 L 214.402344 217.3125 C 214.402344 219.417969 212.449219 221.140625 210.0625 221.140625 L 159.191406 221.140625 C 156.804688 221.140625 154.855469 219.417969 154.855469 217.3125 L 154.855469 215.097656 C 154.855469 212.988281 156.804688 211.265625 159.191406 211.265625 Z M 128.496094 176.128906 L 128.496094 87.640625 L 120.574219 87.640625 L 120.574219 184.203125 C 123.21875 184.183594 125.859375 184.246094 128.496094 184.382812 C 130.652344 184.496094 132.808594 184.664062 134.953125 184.882812 C 137.605469 185.152344 140.25 185.503906 142.878906 185.933594 C 154.875 187.894531 166.582031 191.5 177.660156 196.675781 C 167.332031 188.472656 155.492188 182.472656 142.878906 178.976562 C 140.269531 178.253906 137.625 177.636719 134.953125 177.128906 C 132.816406 176.726562 130.664062 176.394531 128.496094 176.128906 Z M 277.898438 63.15625 L 284.976562 63.15625 C 285.527344 63.15625 285.976562 63.605469 285.976562 64.160156 L 285.976562 71.238281 C 285.976562 71.789062 285.527344 72.238281 284.976562 72.238281 L 277.898438 72.238281 C 277.347656 72.238281 276.898438 71.789062 276.898438 71.238281 L 276.898438 64.160156 C 276.898438 63.605469 277.347656 63.15625 277.898438 63.15625 Z M 265.707031 89.214844 L 283.203125 89.214844 C 283.476562 89.214844 283.71875 89.113281 283.910156 88.921875 L 287.527344 85.304688 C 287.722656 85.113281 287.820312 84.875 287.820312 84.597656 L 287.820312 75.082031 C 287.820312 74.53125 288.269531 74.082031 288.824219 74.082031 L 301.953125 74.082031 C 302.507812 74.082031 302.957031 74.53125 302.957031 75.082031 L 302.957031 88.210938 C 302.957031 88.761719 302.507812 89.214844 301.953125 89.214844 L 292.441406 89.214844 C 292.164062 89.214844 291.925781 89.316406 291.730469 89.507812 L 288.113281 93.125 C 287.921875 93.320312 287.820312 93.554688 287.820312 93.832031 L 287.820312 111.328125 C 287.820312 111.878906 287.371094 112.328125 286.820312 112.328125 L 265.707031 112.328125 C 265.15625 112.328125 264.707031 111.878906 264.707031 111.328125 L 264.707031 90.21875 C 264.710938 89.664062 265.15625 89.214844 265.707031 89.214844 Z M 142.878906 170.625 C 154.847656 176.375 166.207031 183.332031 176.777344 191.390625 C 166.800781 179.390625 155.417969 168.648438 142.878906 159.402344 L 142.878906 79.316406 C 155.78125 83.042969 167.929688 89.136719 178.683594 97.324219 C 168.578125 86.84375 156.359375 78.6875 142.875 73.367188 C 140.277344 72.34375 137.632812 71.425781 134.953125 70.617188 L 134.953125 167.03125 C 137.625 168.167969 140.265625 169.367188 142.878906 170.625 Z M 142.878906 170.625 " fill-opacity="1" fill-rule="evenodd"/></g><g fill="#ffffff" fill-opacity="1"><g transform="translate(64.194213, 278.398569)"><g><path d="M 12.703125 -27.609375 L 12.703125 -21.8125 L 24.03125 -21.8125 L 24.03125 -14.3125 L 12.703125 -14.3125 L 12.703125 -7.90625 L 25.546875 -7.90625 L 25.546875 0 L 2.828125 0 L 2.828125 -35.53125 L 25.546875 -35.53125 L 25.546875 -27.609375 Z M 12.703125 -27.609375 "/></g></g></g><g fill="#ffffff" fill-opacity="1"><g transform="translate(91.805869, 278.398569)"><g><path d="M 35.734375 0 L 25.84375 0 L 12.703125 -19.859375 L 12.703125 0 L 2.828125 0 L 2.828125 -35.53125 L 12.703125 -35.53125 L 25.84375 -15.421875 L 25.84375 -35.53125 L 35.734375 -35.53125 Z M 35.734375 0 "/></g></g></g><g fill="#ffffff" fill-opacity="1"><g transform="translate(130.351323, 278.398569)"><g><path d="M 16.21875 0.359375 C 12.09375 0.359375 8.703125 -0.625 6.046875 -2.59375 C 3.390625 -4.5625 1.960938 -7.375 1.765625 -11.03125 L 12.296875 -11.03125 C 12.398438 -9.789062 12.769531 -8.882812 13.40625 -8.3125 C 14.039062 -7.738281 14.863281 -7.453125 15.875 -7.453125 C 16.78125 -7.453125 17.523438 -7.675781 18.109375 -8.125 C 18.703125 -8.582031 19 -9.21875 19 -10.03125 C 19 -11.070312 18.507812 -11.875 17.53125 -12.4375 C 16.5625 -13.007812 14.984375 -13.648438 12.796875 -14.359375 C 10.484375 -15.128906 8.613281 -15.875 7.1875 -16.59375 C 5.757812 -17.320312 4.515625 -18.382812 3.453125 -19.78125 C 2.390625 -21.175781 1.859375 -23 1.859375 -25.25 C 1.859375 -27.53125 2.429688 -29.484375 3.578125 -31.109375 C 4.722656 -32.742188 6.300781 -33.976562 8.3125 -34.8125 C 10.332031 -35.65625 12.617188 -36.078125 15.171875 -36.078125 C 19.296875 -36.078125 22.59375 -35.109375 25.0625 -33.171875 C 27.53125 -31.242188 28.851562 -28.535156 29.03125 -25.046875 L 18.296875 -25.046875 C 18.253906 -26.117188 17.921875 -26.921875 17.296875 -27.453125 C 16.679688 -27.992188 15.890625 -28.265625 14.921875 -28.265625 C 14.179688 -28.265625 13.570312 -28.046875 13.09375 -27.609375 C 12.625 -27.171875 12.390625 -26.550781 12.390625 -25.75 C 12.390625 -25.070312 12.648438 -24.488281 13.171875 -24 C 13.691406 -23.519531 14.335938 -23.101562 15.109375 -22.75 C 15.890625 -22.394531 17.035156 -21.953125 18.546875 -21.421875 C 20.796875 -20.640625 22.648438 -19.867188 24.109375 -19.109375 C 25.566406 -18.359375 26.828125 -17.300781 27.890625 -15.9375 C 28.953125 -14.582031 29.484375 -12.863281 29.484375 -10.78125 C 29.484375 -8.664062 28.953125 -6.765625 27.890625 -5.078125 C 26.828125 -3.398438 25.296875 -2.070312 23.296875 -1.09375 C 21.304688 -0.125 18.945312 0.359375 16.21875 0.359375 Z M 16.21875 0.359375 "/></g></g></g><g fill="#ffffff" fill-opacity="1"><g transform="translate(161.590787, 278.398569)"><g><path d="M 12.703125 -35.53125 L 12.703125 0 L 2.828125 0 L 2.828125 -35.53125 Z M 12.703125 -35.53125 "/></g></g></g><g fill="#ffffff" fill-opacity="1"><g transform="translate(177.109751, 278.398569)"><g><path d="M 29.578125 -35.53125 L 29.578125 -27.671875 L 20.109375 -27.671875 L 20.109375 0 L 10.234375 0 L 10.234375 -27.671875 L 0.859375 -27.671875 L 0.859375 -35.53125 Z M 29.578125 -35.53125 "/></g></g></g><g fill="#ffffff" fill-opacity="1"><g transform="translate(207.543035, 278.398569)"><g><path d="M 12.703125 -27.609375 L 12.703125 -21.8125 L 24.03125 -21.8125 L 24.03125 -14.3125 L 12.703125 -14.3125 L 12.703125 -7.90625 L 25.546875 -7.90625 L 25.546875 0 L 2.828125 0 L 2.828125 -35.53125 L 25.546875 -35.53125 L 25.546875 -27.609375 Z M 12.703125 -27.609375 "/></g></g></g><g fill="#ffffff" fill-opacity="1"><g transform="translate(235.15469, 278.398569)"><g><path d="M 1.609375 -17.84375 C 1.609375 -21.332031 2.335938 -24.445312 3.796875 -27.1875 C 5.265625 -29.925781 7.34375 -32.054688 10.03125 -33.578125 C 12.71875 -35.109375 15.804688 -35.875 19.296875 -35.875 C 23.734375 -35.875 27.460938 -34.6875 30.484375 -32.3125 C 33.503906 -29.945312 35.453125 -26.734375 36.328125 -22.671875 L 25.703125 -22.671875 C 25.054688 -24.015625 24.171875 -25.039062 23.046875 -25.75 C 21.921875 -26.457031 20.625 -26.8125 19.15625 -26.8125 C 16.863281 -26.8125 15.035156 -25.992188 13.671875 -24.359375 C 12.316406 -22.734375 11.640625 -20.5625 11.640625 -17.84375 C 11.640625 -15.082031 12.316406 -12.882812 13.671875 -11.25 C 15.035156 -9.625 16.863281 -8.8125 19.15625 -8.8125 C 20.625 -8.8125 21.921875 -9.164062 23.046875 -9.875 C 24.171875 -10.582031 25.054688 -11.609375 25.703125 -12.953125 L 36.328125 -12.953125 C 35.453125 -8.890625 33.503906 -5.671875 30.484375 -3.296875 C 27.460938 -0.929688 23.734375 0.25 19.296875 0.25 C 15.804688 0.25 12.71875 -0.507812 10.03125 -2.03125 C 7.34375 -3.5625 5.265625 -5.695312 3.796875 -8.4375 C 2.335938 -11.175781 1.609375 -14.3125 1.609375 -17.84375 Z M 1.609375 -17.84375 "/></g></g></g><g fill="#ffffff" fill-opacity="1"><g transform="translate(273.347448, 278.398569)"><g><path d="M 34.625 -35.53125 L 34.625 0 L 24.734375 0 L 24.734375 -14.265625 L 12.703125 -14.265625 L 12.703125 0 L 2.828125 0 L 2.828125 -35.53125 L 12.703125 -35.53125 L 12.703125 -22.171875 L 24.734375 -22.171875 L 24.734375 -35.53125 Z M 34.625 -35.53125 "/></g></g></g></svg>