<svg width="100" height="90" viewBox="0 0 100 90" fill="none" xmlns="http://www.w3.org/2000/svg">
<mask id="mask0_314_236" style="mask-type:luminance" maskUnits="userSpaceOnUse" x="11" y="0" width="87" height="66">
<path d="M11.292 0H97.9363V65.5105H11.292V0Z" fill="white"/>
</mask>
<g mask="url(#mask0_314_236)">
<path fill-rule="evenodd" clip-rule="evenodd" d="M15.4925 52.6626V20.2535H19.8194V16.0546H15.4341C13.1564 16.0562 11.292 17.919 11.292 20.1984V52.7193C11.292 54.9971 13.1564 56.8615 15.4341 56.8615H43.2229C39.3385 55.2095 35.2612 54.026 31.0932 53.3467C30.0507 53.1765 29.0018 53.0371 27.9481 52.9285C27.0953 52.8426 26.2426 52.7745 25.3866 52.7307C24.7268 52.695 24.0686 52.6723 23.4087 52.6626H21.5087L19.8194 52.674V52.6626H15.4925ZM66.1367 44.6183C61.1694 47.0047 56.455 49.892 52.0664 53.2365C56.207 48.2562 60.9311 43.798 66.1367 39.9606V6.72305C60.7803 8.26966 55.7384 10.7987 51.2753 14.1967C55.4677 9.84708 60.5404 6.46204 66.1367 4.25399C67.2132 3.82923 68.3107 3.44826 69.4245 3.11267V43.1268C68.3172 43.5986 67.2213 44.0963 66.1367 44.6183ZM82.1265 52.6626V24.6096C82.2367 24.6177 82.3486 24.6209 82.4588 24.6209H86.3237V52.7193C86.3237 54.9971 84.461 56.8599 82.1832 56.8599H54.3945C58.2788 55.2079 62.3561 54.026 66.5242 53.3451C67.5682 53.1749 68.6171 53.0355 69.6693 52.9285C70.522 52.8409 71.3764 52.7745 72.2324 52.7291C72.8906 52.6934 73.5504 52.6723 74.2086 52.661H76.1086L77.7979 52.6723V52.661H82.1265V52.6626ZM72.1043 46.9025V10.1778H75.3937V50.2535C74.2945 50.2454 73.1986 50.2714 72.1043 50.3281C71.2094 50.3751 70.3161 50.4448 69.4245 50.5356C68.3237 50.6475 67.2278 50.7934 66.1367 50.9717C61.1581 51.7855 56.2994 53.2819 51.7017 55.43C55.9881 52.0255 60.9003 49.5353 66.1367 48.0844C67.2197 47.7845 68.3156 47.5283 69.4245 47.3176C70.3113 47.1506 71.2046 47.0128 72.1043 46.9025ZM38.2523 61.4851H45.739V60.3762C45.739 59.8153 46.2577 59.3581 46.8932 59.3581H50.7257C51.3596 59.3581 51.88 59.8153 51.88 60.3762V61.4851H59.365C60.3556 61.4851 61.1662 62.2 61.1662 63.0755V63.9947C61.1662 64.8685 60.3556 65.5835 59.365 65.5835H38.2523C37.2618 65.5835 36.4528 64.8685 36.4528 63.9947V63.0755C36.4528 62.2 37.2618 61.4851 38.2523 61.4851ZM25.513 46.9025V10.1778H22.2253V50.2535C23.3228 50.2454 24.4187 50.2714 25.513 50.3281C26.4079 50.3751 27.3028 50.4448 28.1929 50.5356C29.2936 50.6475 30.3912 50.7934 31.4822 50.9717C36.4609 51.7855 41.3196 53.2819 45.9173 55.43C41.6309 52.0255 36.7171 49.5353 31.4822 48.0844C30.3993 47.7845 29.3018 47.5283 28.1929 47.3176C27.3061 47.1506 26.4128 47.0128 25.513 46.9025ZM87.5185 0.0162048H90.4561C90.6847 0.0162048 90.8712 0.202641 90.8712 0.43285V3.37044C90.8712 3.59903 90.6847 3.78546 90.4561 3.78546H87.5185C87.29 3.78546 87.1035 3.59903 87.1035 3.37044V0.43285C87.1035 0.202641 87.29 0.0162048 87.5185 0.0162048ZM82.4588 10.8311H89.7201C89.8336 10.8311 89.9341 10.7906 90.0136 10.7095L91.5148 9.20833C91.5958 9.12889 91.6364 9.03 91.6364 8.9149V4.96569C91.6364 4.7371 91.8228 4.55066 92.053 4.55066H97.5018C97.732 4.55066 97.9185 4.7371 97.9185 4.96569V10.4145C97.9185 10.6431 97.732 10.8311 97.5018 10.8311H93.5542C93.4391 10.8311 93.3402 10.8733 93.2592 10.9527L91.7579 12.4539C91.6785 12.535 91.6364 12.6323 91.6364 12.7474V20.0087C91.6364 20.2373 91.4499 20.4237 91.2213 20.4237H82.4588C82.2302 20.4237 82.0438 20.2373 82.0438 20.0087V11.2478C82.0454 11.0176 82.2302 10.8311 82.4588 10.8311ZM31.4822 44.6183C36.4496 47.0047 41.164 49.892 45.5509 53.2365C41.4104 48.2562 36.6863 43.798 31.4822 39.9606V6.72305C36.837 8.26966 41.8789 10.7987 46.342 14.1967C42.148 9.84708 37.077 6.46204 31.4806 4.25399C30.4025 3.82923 29.305 3.44826 28.1929 3.11267V43.1268C29.3018 43.5986 30.3977 44.0963 31.4822 44.6183Z" fill="#003366"/>
</g>
<path d="M4.09836 77.8883V80.2941H8.7998V83.4068H4.09836V86.0656H9.42882V89.3468H0V74.6005H9.42882V77.8883H4.09836Z" fill="#003366"/>
<path d="M25.1163 89.3468H21.0115L15.5578 81.1047V89.3468H11.4595V74.6005H15.5578L21.0115 82.9464V74.6005H25.1163V89.3468Z" fill="#003366"/>
<path d="M33.0141 89.496C31.3022 89.496 29.895 89.0875 28.7926 88.2704C27.6902 87.4533 27.0968 86.286 27.0157 84.7686H31.3865C31.4286 85.2841 31.5826 85.6603 31.8469 85.897C32.1095 86.1353 32.4516 86.2536 32.8715 86.2536C33.2476 86.2536 33.5556 86.1612 33.7988 85.9748C34.0452 85.7851 34.1684 85.5208 34.1684 85.1836C34.1684 84.7524 33.9642 84.4184 33.5589 84.185C33.1568 83.9483 32.5018 83.6824 31.594 83.3874C30.6342 83.068 29.8577 82.7583 29.266 82.46C28.6726 82.1585 28.1571 81.7175 27.7161 81.1372C27.2751 80.5584 27.0547 79.8013 27.0547 78.8675C27.0547 77.9207 27.2913 77.1101 27.768 76.4357C28.243 75.7581 28.8979 75.2458 29.7329 74.8988C30.571 74.5487 31.5194 74.3736 32.5797 74.3736C34.2916 74.3736 35.6599 74.7756 36.6845 75.5797C37.7091 76.3806 38.2571 77.5041 38.3316 78.9518H33.8766C33.8588 78.5076 33.721 78.1736 33.4616 77.9531C33.2054 77.7294 32.878 77.6159 32.4759 77.6159C32.1679 77.6159 31.915 77.7067 31.7172 77.8883C31.5226 78.0699 31.4254 78.3276 31.4254 78.66C31.4254 78.9421 31.5324 79.1836 31.7496 79.3863C31.9652 79.5857 32.2327 79.7591 32.5537 79.9051C32.878 80.0526 33.353 80.2358 33.9804 80.4563C34.9142 80.7805 35.6826 81.1015 36.2889 81.416C36.8936 81.7273 37.4173 82.1666 37.8582 82.7324C38.2992 83.295 38.5197 84.0083 38.5197 84.8724C38.5197 85.7511 38.2992 86.5389 37.8582 87.2393C37.4173 87.9364 36.7818 88.4876 35.9517 88.8929C35.1249 89.295 34.1457 89.496 33.0141 89.496Z" fill="#003366"/>
<path d="M44.5202 74.6005V89.3468H40.4219V74.6005H44.5202Z" fill="#003366"/>
<path d="M57.9645 74.6005V77.8624H54.0347V89.3468H49.9364V77.8624H46.0455V74.6005H57.9645Z" fill="#003366"/>
<path d="M63.5915 77.8883V80.2941H68.293V83.4068H63.5915V86.0656H68.922V89.3468H59.4932V74.6005H68.922V77.8883H63.5915Z" fill="#003366"/>
<path d="M70.4468 81.9413C70.4468 80.4936 70.7484 79.2015 71.3547 78.0634C71.9643 76.927 72.8267 76.0434 73.9421 75.4111C75.0575 74.7756 76.3382 74.4579 77.7876 74.4579C79.6292 74.4579 81.1758 74.9507 82.4306 75.9364C83.6838 76.9188 84.4928 78.2515 84.8559 79.9375H80.4463C80.1772 79.3798 79.8108 78.9551 79.3439 78.66C78.877 78.3666 78.3388 78.219 77.7292 78.219C76.7776 78.219 76.0189 78.5595 75.4531 79.2371C74.8905 79.9116 74.61 80.8129 74.61 81.9413C74.61 83.0875 74.8905 84.0002 75.4531 84.6778C76.0189 85.3523 76.7776 85.6895 77.7292 85.6895C78.3388 85.6895 78.877 85.5436 79.3439 85.2485C79.8108 84.9551 80.1772 84.5287 80.4463 83.971H84.8559C84.4928 85.657 83.6838 86.9929 82.4306 87.9786C81.1758 88.961 79.6292 89.4506 77.7876 89.4506C76.3382 89.4506 75.0575 89.1361 73.9421 88.5038C72.8267 87.8683 71.9643 86.9832 71.3547 85.8451C70.7484 84.7086 70.4468 83.4068 70.4468 81.9413Z" fill="#003366"/>
<path d="M100 74.6005V89.3468H95.8951V83.4263H90.9019V89.3468H86.8035V74.6005H90.9019V80.145H95.8951V74.6005H100Z" fill="#003366"/>
</svg>
